<?xml version="1.0" encoding="UTF-8"?>
<svg viewBox="0 0 960 540" width="960" height="540"
     xmlns="http://www.w3.org/2000/svg"
     font-family="'Apple SD Gothic Neo', 'Noto Sans KR', 'Malgun Gothic', 'Segoe UI', sans-serif">
  <defs>
    <marker id="arr" markerWidth="8" markerHeight="6" refX="7" refY="3" orient="auto">
      <path d="M0,0 L8,3 L0,6 Z" fill="#6B7280"/>
    </marker>
  </defs>
  <rect width="960" height="540" fill="#F8FAFC"/>
  <text x="480" y="34" text-anchor="middle" font-size="20" font-weight="bold" fill="#111827">к°ңмқё PKM мҡҙмҳҒ лЈЁнӢҙмқҖ Daily, Weekly, Monthlyмқҳ лЈЁн”„лӢӨ</text>
  <text x="480" y="58" text-anchor="middle" font-size="11" fill="#6B7280">DailyлҠ” мһ…л Ҙмқ„ лҶ“м№ҳм§Җ м•Ҡкі , WeeklyлҠ” м—°кІ°кіј Distillмқ„ н•ҳкі , MonthlyлҠ” кө¬мЎ° мғҒнғңлҘј м җкІҖн•ңлӢӨ</text>

  <circle cx="480" cy="270" r="168" fill="#FFFFFF" stroke="#D1D5DB" stroke-width="2"/>

  <rect x="375" y="92" width="210" height="92" rx="12" fill="#DBEAFE" stroke="#60A5FA" stroke-width="2"/>
  <text x="480" y="123" text-anchor="middle" font-size="18" font-weight="bold" fill="#1D4ED8">Daily</text>
  <text x="480" y="148" text-anchor="middle" font-size="11" fill="#2563EB">мӮ¬мӢӨ, кІ°м •, м§ҖмӢқ нӣ„ліҙ,</text>
  <text x="480" y="166" text-anchor="middle" font-size="11" fill="#2563EB">мӢӨн–ү кІ°кіјлҘј лҶ“м№ҳм§Җ м•Ҡкі  Capture</text>

  <rect x="650" y="230" width="210" height="92" rx="12" fill="#ECFDF5" stroke="#34D399" stroke-width="2"/>
  <text x="755" y="261" text-anchor="middle" font-size="18" font-weight="bold" fill="#047857">Weekly</text>
  <text x="755" y="286" text-anchor="middle" font-size="11" fill="#059669">мӨ‘мҡ”н•ң Decision нҷ•мқё,</text>
  <text x="755" y="304" text-anchor="middle" font-size="11" fill="#059669">Knowledge нӣ„ліҙ, кі лҰҪ л…ёнҠё м—°кІ°</text>

  <rect x="375" y="356" width="210" height="92" rx="12" fill="#FEF3C7" stroke="#F59E0B" stroke-width="2"/>
  <text x="480" y="387" text-anchor="middle" font-size="18" font-weight="bold" fill="#B45309">Monthly</text>
  <text x="480" y="412" text-anchor="middle" font-size="11" fill="#C2410C">кө¬мЎ°мҷҖ м¶•мқҳ мғҒнғң, мҳӨлһҳлҗң Decision,</text>
  <text x="480" y="430" text-anchor="middle" font-size="11" fill="#C2410C">Knowledge кө¬мЎ°лҘј м җкІҖ</text>

  <path d="M586,136 C668,154 714,188 732,230" fill="none" stroke="#6B7280" stroke-width="2.5" marker-end="url(#arr)"/>
  <path d="M754,322 C728,372 644,410 586,404" fill="none" stroke="#6B7280" stroke-width="2.5" marker-end="url(#arr)"/>
  <path d="M374,404 C290,394 224,346 212,268 C206,228 226,168 374,136" fill="none" stroke="#6B7280" stroke-width="2.5" marker-end="url(#arr)"/>

  <rect x="118" y="214" width="180" height="108" rx="12" fill="#F3F4F6" stroke="#9CA3AF" stroke-width="2"/>
  <text x="208" y="244" text-anchor="middle" font-size="16" font-weight="bold" fill="#111827">мөңмҶҢ мң м§Җ мӣҗм№ҷ</text>
  <text x="208" y="270" text-anchor="middle" font-size="11" fill="#4B5563">л°”мҒ  л•ҢлҠ” Daily мһ…л Ҙл§Ң</text>
  <text x="208" y="288" text-anchor="middle" font-size="11" fill="#4B5563">WeeklyлҠ” active Decisionл§Ң</text>
  <text x="208" y="306" text-anchor="middle" font-size="11" fill="#4B5563">MonthlyлҠ” нҳ„мһ¬ н”„лЎңм қнҠёл§Ң м җкІҖ</text>

  <rect x="248" y="476" width="464" height="34" rx="8" fill="#FFFFFF" stroke="#D1D5DB"/>
  <text x="480" y="498" text-anchor="middle" font-size="11" fill="#374151">лЈЁнӢҙмқҳ лӘ©м ҒмқҖ мғқмӮ°м„ұ кҙҖлҰ¬к°Җ м•„лӢҲлқј нҢҗлӢЁ нқҗлҰ„мқ„ лҒҠкё°м§Җ м•ҠкІҢ мң м§Җн•ҳлҠ” кІғмқҙлӢӨ</text>
</svg>
